<svg height="512pt" viewBox="0 -56 512 511" width="512pt" xmlns="http://www.w3.org/2000/svg"><path d="m502 154.328125c0 25.976563-9.140625 49.910156-24.355469 68.769531l-.039062.050782c-1.039063 1.285156-2.105469 2.546874-3.199219 3.78125l-.144531.164062c-1.074219 1.210938-2.179688 2.398438-3.308594 3.5625l-.1875.191406c-.6875.710938-1.386719 1.40625-2.09375 2.097656l-.21875.214844c-.378906.363282-.753906.726563-1.136719 1.085938l-.15625.144531c-.703125.660156-1.414062 1.308594-2.136718 1.953125l-.382813.339844c-1.125.992187-2.273437 1.964844-3.441406 2.910156l-.589844.480469c-.574219.457031-1.152344.910156-1.738281 1.359375-.222656.175781-.449219.351562-.679688.519531-.335937.257813-.675781.511719-1.019531.765625-.257813.1875-.515625.378906-.773437.5625-.523438.378906-1.050782.753906-1.582032 1.125-.285156.203125-.574218.402344-.859375.601562-.335937.226563-.671875.457032-1.011719.683594-.316406.210938-.636718.421875-.957031.632813-.472656.308593-.953125.613281-1.429687.917969-.339844.214843-.683594.429687-1.027344.644531-.308594.191406-.617188.378906-.929688.566406-.539062.328125-1.082031.648437-1.625.964844-.292968.171875-.589843.335937-.882812.503906-.371094.210937-.742188.417969-1.117188.625-.289062.164063-.582031.324219-.875.484375-.574218.308594-1.152343.613281-1.734374.917969-.28125.144531-.566407.289062-.851563.433593-.429687.214844-.859375.429688-1.289063.640626-.253906.125-.507812.253906-.761718.375-.613282.296874-1.230469.582031-1.847656.867187-.269532.125-.542969.246094-.816407.367187-.515625.230469-1.027343.457032-1.546875.679688-.292968.128906-.589844.253906-.886718.378906-.539063.226563-1.074219.445313-1.617188.664063-.261719.105469-.527344.210937-.789062.3125-.65625.257812-1.316407.511719-1.980469.757812-.210938.078125-.421875.152344-.632813.226563-.539062.195312-1.082031.390625-1.625.578125-.234375.078125-.46875.160156-.703125.242187-.691406.230469-1.378906.457032-2.074219.675782-.21875.066406-.4375.136718-.65625.203124-.578124.179688-1.164062.351563-1.75.523438-.195312.054688-.386718.113281-.582031.167969-.71875.203125-1.4375.398437-2.160156.589843-.222656.054688-.441406.113282-.664063.167969-.652343.167969-1.308593.328125-1.964843.484375-.125.027344-.246094.058594-.371094.089844-.757813.171875-1.515625.339844-2.277344.496094l-.617187.128906c-.765625.15625-1.53125.304688-2.304688.445312l-.320312.054688c-.699219.121094-1.398438.238281-2.101563.351562-.207031.03125-.410156.0625-.617187.09375-.773438.117188-1.546875.230469-2.320313.328126-.167969.023437-.335937.042968-.503906.0625-.671875.085937-1.34375.160156-2.015625.230468-.191406.023438-.382812.042969-.574219.066406-.785156.078126-1.574219.144532-2.363281.210938-.183594.011719-.371094.023438-.554688.039062-.726562.054688-1.453124.101563-2.179687.140626-.121094.003906-.242187.015624-.363281.019531-.808594.042969-1.617188.066406-2.429688.09375-.203125.007812-.410156.011719-.617187.015625-.808594.019531-1.617188.03125-2.425781.03125h-.0625c-1.5625 0-3.109376.011718-4.640626.039062-1.535156.027344-3.054687.066406-4.5625.121094-1.507812.054688-3.003906.121094-4.484374.195312v.003907c-1.480469.078125-2.953126.167969-4.410157.269531-1.457031.105469-2.898437.21875-4.332031.347656-1.433594.125-2.855469.265625-4.265625.414063-1.40625.148437-2.804687.3125-4.191406.480469-1.386719.171874-2.761719.355468-4.125.546874-1.367188.191407-2.722657.394532-4.0625.609376-1.34375.210937-2.675781.433593-4 .664062v.003906c-1.324219.230469-2.636719.472656-3.9375.722656-1.304688.25-2.597657.507813-3.882813.777344-1.28125.269532-2.558594.542969-3.824218.828125-1.265626.285157-2.523438.578125-3.769532.878907-1.25.300781-2.488281.609374-3.71875.925781-1.234375.316406-2.457031.640625-3.671875.96875-1.214843.332031-2.421875.667969-3.621093 1.011719-1.203126.34375-2.394532.691406-3.578126 1.046874-1.1875.359376-2.363281.722657-3.535156 1.089844-1.171875.363282-2.335937.738282-3.496094 1.117188-1.15625.375-2.3125.761718-3.457031 1.148437s-2.285156.78125-3.417969 1.175781c-1.136718.398438-2.261718.800782-3.386718 1.203126-1.125.40625-2.242188.816406-3.355469 1.230468-1.113281.410156-2.21875.828125-3.324219 1.246094-1.105468.421875-2.203125.84375-3.296875 1.265625-1.09375.425781-2.183593.851563-3.273437 1.28125-1.085938.429687-2.167969.859375-3.25 1.292969-1.078125.433594-2.15625.871094-3.226563 1.304687-1.074219.4375-2.144531.875-3.210937 1.3125s-2.132813.878907-3.195313 1.316407c-1.058593.441406-2.121093.882812-3.179687 1.320312l-3.167969 1.316406-3.15625 1.320313-3.152344 1.308593c-1.046875.441407-2.097656.871094-3.144531 1.308594-1.046875.433594-2.09375.863282-3.140625 1.292969s-2.09375.855469-3.140625 1.28125-2.09375.847656-3.144531 1.265625c-1.046875.417969-2.097657.835938-3.144531 1.246094-1.050782.414062-2.101563.824218-3.152344 1.226562-1.050782.40625-2.101563.808594-3.160156 1.203125-1.054688.398438-2.109376.792969-3.167969 1.179688-1.058594.386719-2.117188.769531-3.183594 1.148437-1.0625.378906-2.125.753906-3.195313 1.121094-1.066406.367188-2.140624.726562-3.214843 1.082031-1.070313.355469-2.148438.707031-3.230469 1.050781s-2.164062.679688-3.253906 1.007813c-1.085938.332031-2.179688.65625-3.277344.96875-1.09375.316406-2.195312.625-3.300781.925781-1.105469.300782-2.214844.59375-3.328125.878906-1.117188.285157-2.234375.5625-3.359375.832032-1.125.265625-2.257813.527344-3.394531.777344-1.039063.230468-2.089844.449218-3.140626.664062-.09375.019531-.1875.039062-.285156.058594-1.148437.234375-2.300781.457031-3.460937.667968-1.160157.214844-2.328125.414063-3.503907.609376-1.171874.191406-2.351562.375-3.539062.546874-1.1875.167969-2.382812.332032-3.585938.480469-1.203124.148438-2.414062.289063-3.632812.414063-1.214844.125-2.441406.242187-3.675781.34375-1.234375.105468-2.476563.195312-3.726563.273437-1.253906.078125-2.511718.144531-3.78125.199219-1.269531.054688-2.546875.09375-3.835937.121094-1.285157.023437-2.582031.039062-3.890625.039062-1.230469 0-2.460938-.019531-3.6875-.046875-.382813-.007812-.761719-.023437-1.144532-.035156-.851562-.027344-1.707031-.058594-2.558593-.097656-.429688-.019531-.863281-.042969-1.292969-.066407-.816406-.046874-1.636719-.097656-2.453125-.15625-.414063-.027343-.828125-.058593-1.246094-.089843-.921875-.074219-1.839843-.15625-2.757812-.246094-.289063-.027344-.578125-.050781-.867188-.078125-1.199219-.121094-2.390625-.261719-3.582031-.410156-.277344-.035156-.554688-.078125-.835938-.113282-.914062-.121093-1.832031-.25-2.742187-.386718-.40625-.058594-.8125-.125-1.222656-.1875-.785157-.125-1.566407-.253906-2.347657-.390625-.429687-.074219-.859374-.152344-1.289062-.230469-.796875-.144531-1.59375-.296875-2.386719-.457031-.378906-.074219-.761719-.148438-1.140625-.226563-1.125-.230468-2.242187-.476562-3.355468-.730468l-.097657-.023438c-1.152343-.265625-2.300781-.546875-3.441406-.839844-.359375-.089844-.714844-.1875-1.074219-.28125-.789062-.207031-1.574218-.417968-2.359375-.636718-.410156-.117188-.820312-.234376-1.230469-.355469-.75-.21875-1.496093-.4375-2.238281-.664063-.390625-.121094-.78125-.238281-1.167969-.359375-.839843-.265625-1.675781-.539062-2.511718-.816406-.28125-.09375-.5625-.183594-.839844-.277344-1.105469-.375-2.203125-.761719-3.296875-1.160156-.238281-.089844-.480469-.179687-.71875-.269531-.851563-.320313-1.703125-.640625-2.550781-.96875-.375-.148438-.75-.300782-1.125-.449219-.714844-.289063-1.429688-.578125-2.140625-.875-.394531-.164063-.785157-.332031-1.175781-.5-.71875-.304687-1.433594-.621094-2.148438-.9375-.355469-.160156-.710938-.3125-1.0625-.472656-.957031-.433594-1.90625-.878907-2.851562-1.332031-.089844-.046876-.1875-.089844-.28125-.132813-.113282-.058594-.226563-.117187-.34375-.171875 20.582031 40.863281 58.710937 71.375 104.488281 81.628906 61.84375-12.59375 106.070312-52.566406 190.230469-52.566406 48.28125 0 89.542968-31.570312 104.175781-75.085938 3.675781-10.9375 5.671875-22.628906 5.671875-34.765624 0-1.175782-.019532-2.34375-.0625-3.5h.066406zm0 0" fill="#fd4a4a"/><g fill-rule="evenodd"><path d="m223.992188 12.421875c-31.484376 4.980469-59.816407 19.449219-81.980469 40.378906 7.425781-1.507812 15.117187-2.300781 22.988281-2.300781 51.402344 0 105.734375 4.28125 156.136719 14.164062 39.792969 7.804688 115.558593 27.4375 135.695312 67.238282 3.585938 7.089844 5.167969 14.496094 5.167969 22.425781 0 38.339844-31.511719 69.851563-69.851562 69.851563-33.308594 0-64.367188 5.535156-95.867188 16.148437-23.460938 7.90625-45.566406 18.3125-68.625 27.054687-20.714844 7.851563-40.324219 13.121094-62.65625 13.121094-7.871094 0-15.558594-.792968-22.984375-2.300781 18.457031 17.425781 41.1875 30.375 66.460937 37.097656 58.492188-13.949219 102.515626-51.121093 183.671876-51.121093 60.417968 0 109.851562-49.433594 109.851562-109.851563 0-105.742187-168.113281-134.976563-278.007812-141.90625zm0 0" fill="#bccbd3"/><path d="m456.832031 131.902344c-20.136719-39.800782-95.898437-59.433594-135.695312-67.238282-30.472657-5.976562-62.382813-9.890624-94.210938-12.0625-26.875 5.195313-50.410156 19.753907-67.089843 40.136719 4.574218-1.582031 9.542968-2.460937 14.742187-2.460937 22.417969 0 40.699219 16.160156 40.699219 35.976562s-18.28125 35.976563-40.699219 35.976563c-17.078125 0-31.75-9.382813-37.769531-22.613281-1.917969 8.320312-2.929688 16.984374-2.929688 25.886718 0 49.679688 31.503906 92.003906 75.625 108.082032 6.019532-1.800782 12.039063-3.886719 18.152344-6.203126 23.058594-8.738281 45.164062-19.144531 68.625-27.054687 31.5-10.613281 62.558594-16.144531 95.867188-16.144531 38.339843 0 69.851562-31.511719 69.851562-69.851563 0-7.933593-1.582031-15.339843-5.167969-22.429687zm0 0" fill="#ff8d8d"/><path d="m192.445312 93.945312c-13.503906 5.867188-22.835937 18.152344-22.835937 32.308594 0 14.152344 9.332031 26.441406 22.835937 32.308594 13.5-5.867188 22.832032-18.15625 22.832032-32.308594 0-14.15625-9.332032-26.441406-22.832032-32.308594zm0 0" fill="#bccbd3"/></g><path d="m468.46875 70.144531c-23.347656-18.605469-56.300781-33.839843-97.945312-45.277343-80.089844-21.992188-170.410157-24.367188-205.523438-24.367188-90.980469 0-165 74.019531-165 165.003906v69.90625c0 90.984375 74.019531 165.003906 165 165.003906 41.953125 0 73.460938-13.140624 106.816406-27.054687 34.496094-14.390625 70.167969-29.269531 120.332032-29.269531 66.085937 0 119.851562-53.765625 119.851562-119.851563v-69.910156c0-32.835937-14.648438-61.160156-43.53125-84.183594zm23.53125 154.09375c0 55.0625-44.792969 99.851563-99.851562 99.851563-54.167969 0-91.71875 15.664062-128.03125 30.808594-31.457032 13.121093-61.167969 25.515624-99.117188 25.515624-76.820312 0-139.867188-60.054687-144.691406-135.679687 28.078125 51.074219 82.410156 85.769531 144.691406 85.769531 41.953125 0 73.460938-13.144531 106.816406-27.058594 34.496094-14.386718 70.167969-29.265624 120.332032-29.265624 3.726562 0 7.492187-.175782 11.191406-.523438 5.5-.515625 9.539062-5.390625 9.023437-10.886719-.511719-5.5-5.394531-9.539062-10.886719-9.023437-3.082031.285156-6.21875.433594-9.328124.433594-54.167969 0-91.71875 15.664062-128.03125 30.808593-31.457032 13.121094-61.167969 25.515625-99.117188 25.515625-79.953125 0-145-65.046875-145-145s65.046875-145.003906 145-145.003906c34.304688 0 122.480469 2.304688 200.226562 23.65625 84.121094 23.101562 126.773438 60.167969 126.773438 110.171875 0 27.296875-11.492188 53.769531-31.527344 72.636719-4.023437 3.785156-4.210937 10.113281-.425781 14.132812 3.785156 4.023438 10.113281 4.214844 14.136719.429688 6.78125-6.386719 12.746094-13.503906 17.816406-21.164063zm0 0"/><path d="m438.515625 242.691406c-.070313.035156-.164063.082032-.238281.117188-4.9375 2.46875-6.9375 8.476562-4.46875 13.414062 1.75 3.503906 5.28125 5.53125 8.953125 5.53125 1.480469 0 2.984375-.332031 4.402343-1.027344 4.902344-2.394531 6.988282-8.292968 4.660157-13.246093-2.351563-4.996094-8.3125-7.140625-13.308594-4.789063zm0 0"/><path d="m235.082031 63.214844.511719.039062c.269531.023438.539062.035156.808594.035156 5.160156 0 9.535156-3.972656 9.957031-9.203124.441406-5.507813-3.667969-10.324219-9.171875-10.765626l-.515625-.042968c-5.511719-.429688-10.324219 3.667968-10.761719 9.171875-.441406 5.507812 3.667969 10.324219 9.171875 10.765625zm0 0"/><path d="m472 154.328125c0-9.820313-2.042969-18.632813-6.242188-26.9375-9.921874-19.605469-31.992187-36.546875-65.601562-50.355469-27.195312-11.171875-56.933594-18.230468-77.097656-22.183594-12.082032-2.371093-24.742188-4.488281-37.632813-6.289062-5.46875-.773438-10.523437 3.046875-11.289062 8.519531-.765625 5.46875 3.046875 10.523438 8.519531 11.289063 12.527344 1.75 24.828125 3.804687 36.554688 6.105468 68.691406 13.472657 115.597656 36.046876 128.699218 61.941407 2.75 5.441406 4.089844 11.300781 4.089844 17.910156 0 33-26.847656 59.851563-59.851562 59.851563-33.367188 0-65.769532 5.453124-99.058594 16.671874-14.339844 4.832032-28.261719 10.609376-41.726563 16.199219-8.902343 3.691407-18.109375 7.515625-27.25 10.976563-23.066406 8.742187-40.746093 12.472656-59.113281 12.472656-57.898438 0-105-47.101562-105-105s47.101562-105 105-105c11.296875 0 22.761719.214844 34.082031.636719 1.921875.070312 3.84375.144531 5.765625.230469 5.515625.25 10.1875-4.03125 10.433594-9.550782.242188-5.515625-4.035156-10.1875-9.550781-10.429687-1.96875-.085938-3.941407-.164063-5.90625-.238281-11.5625-.429688-23.28125-.648438-34.824219-.648438-68.925781 0-125.003906 56.074219-125.003906 125s56.078125 125 125.003906 125c20.933594 0 40.734375-4.117188 66.199219-13.769531 9.429687-3.574219 18.785156-7.457031 27.832031-11.210938 13.152344-5.457031 26.753906-11.101562 40.445312-15.714843 31.195313-10.515626 61.511719-15.625 92.671876-15.625 44.03125 0 79.851562-35.820313 79.851562-79.851563zm0 0"/><path d="m174.578125 80.277344c-27.957031 0-50.699219 20.625-50.699219 45.976562 0 25.351563 22.742188 45.976563 50.699219 45.976563s50.699219-20.625 50.699219-45.976563c0-25.351562-22.742188-45.976562-50.699219-45.976562zm0 71.953125c-16.929687 0-30.699219-11.652344-30.699219-25.976563 0-14.324218 13.769532-25.976562 30.699219-25.976562s30.699219 11.652344 30.699219 25.976562c0 14.324219-13.769532 25.976563-30.699219 25.976563zm0 0"/></svg>